<svg width="18" height="24" viewBox="0 0 18 24" fill="none" xmlns="http://www.w3.org/2000/svg">
<path d="M6 0C7.66 0 9.22 0.315 10.68 0.945C12.14 1.575 13.41 2.43 14.49 3.51C15.57 4.59 16.425 5.86 17.055 7.32C17.685 8.78 18 10.34 18 12C18 13.66 17.685 15.22 17.055 16.68C16.425 18.14 15.57 19.41 14.49 20.49C13.41 21.57 12.14 22.425 10.68 23.055C9.22 23.685 7.66 24 6 24C4.94 24 3.905 23.865 2.895 23.595C1.885 23.325 0.92 22.92 0 22.38C1.86 21.3 3.325 19.84 4.395 18C5.465 16.16 6 14.16 6 12C6 9.84 5.465 7.84 4.395 6C3.325 4.16 1.86 2.7 0 1.62C0.92 1.08 1.885 0.675 2.895 0.405C3.905 0.135 4.94 0 6 0Z" fill="white"/>
</svg>
