<svg width="27" height="27" viewBox="0 0 27 27" fill="none" xmlns="http://www.w3.org/2000/svg">
<path d="M13.8584 19.4735C15.5111 19.4735 16.9198 18.891 18.0846 17.7262C19.2494 16.5614 19.8319 15.1527 19.8319 13.5C19.8319 11.8473 19.2494 10.4386 18.0846 9.27378C16.9198 8.10896 15.5111 7.52655 13.8584 7.52655C13.4204 7.52655 12.9923 7.57135 12.5741 7.66095C12.156 7.75055 11.7478 7.88496 11.3496 8.06416C12.4248 8.56195 13.276 9.29867 13.9032 10.2743C14.5304 11.25 14.844 12.3252 14.844 13.5C14.844 14.6748 14.5304 15.75 13.9032 16.7257C13.276 17.7013 12.4248 18.4381 11.3496 18.9358C11.7478 19.115 12.156 19.2494 12.5741 19.339C12.9923 19.4287 13.4204 19.4735 13.8584 19.4735ZM13.5 27L9.49779 23.0575H3.94248V17.5022L0 13.5L3.94248 9.49779V3.94248H9.49779L13.5 0L17.5022 3.94248H23.0575V9.49779L27 13.5L23.0575 17.5022V23.0575H17.5022L13.5 27Z" fill="white"/>
</svg>
