<svg width="26" height="27" viewBox="0 0 26 27" fill="none" xmlns="http://www.w3.org/2000/svg">
<path d="M23.3917 26.3L19.8042 22.6542C19.3958 22.8875 18.9632 23.0917 18.5062 23.2667C18.0493 23.4417 17.5681 23.5778 17.0625 23.675V20.7875L17.4125 20.6708C17.5292 20.632 17.6458 20.5833 17.7625 20.525L14.7292 17.4333V24.6958L7.525 17.4917H2.275V8.50834H6.06666L0.641663 2.90834L2.56666 0.983337L25.3458 24.3458L23.3917 26.3ZM23.9167 18.9208L21.9042 16.85C22.2347 16.2667 22.4826 15.6493 22.6479 14.9979C22.8132 14.3465 22.8958 13.6708 22.8958 12.9708C22.8958 11.1625 22.3514 9.54376 21.2625 8.11459C20.1736 6.68542 18.7736 5.69862 17.0625 5.15417V2.26667C19.5903 2.83056 21.6611 4.10903 23.275 6.10209C24.8889 8.09514 25.6958 10.3847 25.6958 12.9708C25.6958 14.0792 25.5403 15.1292 25.2292 16.1208C24.9181 17.1125 24.4806 18.0458 23.9167 18.9208ZM20.0375 14.9542L17.0625 11.9208V7.925C18.0542 8.39167 18.866 9.07709 19.4979 9.98126C20.1299 10.8854 20.4458 11.8917 20.4458 13C20.4458 13.35 20.4118 13.6903 20.3437 14.0208C20.2757 14.3514 20.1736 14.6625 20.0375 14.9542ZM14.7292 9.50001L10.7042 5.32917L14.7292 1.30417V9.50001Z" fill="white"/>
</svg>
