<svg width="22" height="22" viewBox="0 0 22 22" fill="none" xmlns="http://www.w3.org/2000/svg">
<path d="M10.8771 22C7.86592 22 5.30028 20.928 3.18017 18.7839C1.06006 16.6398 0 14.0452 0 11C0 7.9548 1.06006 5.36017 3.18017 3.2161C5.30028 1.07203 7.86592 0 10.8771 0C12.4749 0 13.9856 0.326271 15.4092 0.978814C16.406 1.43568 17.2998 2.03725 18.0907 2.78352C18.4336 3.1071 19.0503 2.87852 19.0503 2.40703V0.5C19.0503 0.223857 19.2741 0 19.5503 0H21.5C21.7761 0 22 0.223858 22 0.5V9.72316C22 9.99931 21.7761 10.2232 21.5 10.2232H12.3603C12.0842 10.2232 11.8603 9.99931 11.8603 9.72316V7.77119C11.8603 7.49504 12.0842 7.27119 12.3603 7.27119H15.9299C16.3238 7.27119 16.5572 6.83959 16.3088 6.5338C15.7444 5.83913 15.0707 5.26666 14.2877 4.81638C13.243 4.21563 12.1061 3.91525 10.8771 3.91525C8.9311 3.91525 7.277 4.60405 5.9148 5.98164C4.55261 7.35923 3.87151 9.03201 3.87151 11C3.87151 12.968 4.55261 14.6408 5.9148 16.0184C7.277 17.396 8.9311 18.0847 10.8771 18.0847C12.3315 18.0847 13.6578 17.6601 14.8561 16.8107C15.9608 16.0278 16.7826 15.0247 17.3216 13.8017C17.4047 13.6131 17.5882 13.4859 17.7943 13.4859H20.8441C21.1672 13.4859 21.4059 13.7882 21.3148 14.0982C20.6654 16.3088 19.4394 18.1452 17.6369 19.6073C15.6704 21.2024 13.4171 22 10.8771 22Z" fill="white"/>
</svg>
