<svg width="20" height="23" viewBox="0 0 20 23" fill="none" xmlns="http://www.w3.org/2000/svg">
<path d="M7.7619 2.19048C7.15702 2.19048 6.66667 1.70012 6.66667 1.09524V1.09524C6.66667 0.490355 7.15702 0 7.7619 0H12.2381C12.843 0 13.3333 0.490355 13.3333 1.09524V1.09524C13.3333 1.70012 12.843 2.19048 12.2381 2.19048H7.7619ZM8.88889 13.127C8.88889 13.7406 9.38635 14.2381 10 14.2381V14.2381C10.6136 14.2381 11.1111 13.7406 11.1111 13.127V8.77778C11.1111 8.16413 10.6136 7.66667 10 7.66667V7.66667C9.38635 7.66667 8.88889 8.16413 8.88889 8.77778V13.127ZM10 23C8.62963 23 7.33796 22.7399 6.125 22.2196C4.91204 21.6994 3.85185 20.9921 2.94444 20.0976C2.03704 19.2032 1.31944 18.1581 0.791667 16.9625C0.263889 15.7669 0 14.4937 0 13.1429C0 11.7921 0.263889 10.5188 0.791667 9.32321C1.31944 8.12758 2.03704 7.08254 2.94444 6.1881C3.85185 5.29365 4.91204 4.58631 6.125 4.06607C7.33796 3.54583 8.62963 3.28571 10 3.28571C11.1481 3.28571 12.25 3.46825 13.3056 3.83333C14.0481 4.09017 14.7587 4.42832 15.4371 4.84777C15.9349 5.15555 16.586 5.11761 17.0028 4.70674L17.0667 4.64373C17.4919 4.22466 18.1748 4.22466 18.5999 4.64373V4.64373C19.0338 5.07142 19.0338 5.77144 18.5999 6.19913L18.5583 6.24018C18.1444 6.64811 18.1063 7.29725 18.418 7.78765C18.8423 8.45512 19.1844 9.15408 19.4444 9.88452C19.8148 10.925 20 12.0111 20 13.1429C20 14.4937 19.7361 15.7669 19.2083 16.9625C18.6806 18.1581 17.963 19.2032 17.0556 20.0976C16.1481 20.9921 15.088 21.6994 13.875 22.2196C12.662 22.7399 11.3704 23 10 23Z" fill="white"/>
</svg>
