<svg width="27" height="26" viewBox="0 0 27 26" fill="none" xmlns="http://www.w3.org/2000/svg">
<path d="M16.5 26V22.9543C18.75 22.3105 20.5625 21.0724 21.9375 19.24C23.3125 17.4076 24 15.3276 24 13C24 10.6724 23.3125 8.59238 21.9375 6.76C20.5625 4.92762 18.75 3.68952 16.5 3.04571V0C19.6 0.693333 22.125 2.24714 24.075 4.66143C26.025 7.07571 27 9.85524 27 13C27 16.1448 26.025 18.9243 24.075 21.3386C22.125 23.7529 19.6 25.3067 16.5 26ZM0 17.4943V8.58H6L13.5 1.15143V24.9229L6 17.4943H0ZM16.5 18.98V7.02C17.675 7.56476 18.5938 8.3819 19.2563 9.47143C19.9188 10.561 20.25 11.7495 20.25 13.0371C20.25 14.3 19.9188 15.47 19.2563 16.5471C18.5938 17.6243 17.675 18.4352 16.5 18.98Z" fill="white"/>
</svg>
